# Blender v2.69 (sub 0) OBJ File: ''
# www.blender.org
mtllib bouteille1.mtl
o Bouteille1
v -0.256781 0.044434 -0.068804
v -0.230223 0.044434 0.132919
v -0.230223 0.044434 -0.132919
v -0.187976 0.044434 -0.187976
v -0.187976 0.044434 0.187976
v -0.132919 0.044434 0.230223
v -0.132919 0.044434 -0.230223
v 0.068804 0.044434 -0.256781
v 0.000000 0.044434 0.265839
v 0.068804 0.044434 0.256781
v 0.132919 0.044434 -0.230223
v 0.187976 0.044434 0.187976
v 0.187976 0.044434 -0.187976
v 0.230223 0.044434 0.132919
v 0.230223 0.044434 -0.132919
v 0.256781 0.044434 0.068804
v 0.256781 0.044434 -0.068804
v 0.265839 0.044434 0.000000
v 0.132919 0.044434 0.230223
v 0.000000 0.044434 -0.265839
v -0.068804 0.044434 -0.256781
v -0.068804 0.044434 0.256781
v -0.256781 0.044434 0.068804
v -0.265839 0.044434 0.000000
v -0.068804 -0.000000 0.256781
v 0.000000 -0.000000 0.265839
v 0.068804 -0.000000 0.256781
v 0.132919 -0.000000 0.230223
v 0.187976 -0.000000 0.187976
v 0.230223 -0.000000 0.132919
v 0.256781 -0.000000 0.068804
v 0.265839 0.000000 0.000000
v 0.256781 0.000000 -0.068804
v 0.230223 0.000000 -0.132919
v 0.187976 0.000000 -0.187976
v 0.132919 0.000000 -0.230223
v 0.068804 0.000000 -0.256781
v 0.000000 0.000000 -0.265839
v -0.068804 0.000000 -0.256781
v -0.132919 0.000000 -0.230223
v -0.187976 0.000000 -0.187976
v -0.230223 0.000000 -0.132919
v -0.256781 0.000000 -0.068804
v -0.265839 0.000000 0.000000
v -0.256781 -0.000000 0.068804
v -0.230223 -0.000000 0.132919
v -0.187976 -0.000000 0.187976
v -0.132919 -0.000000 0.230223
v -0.256781 2.577188 0.068805
v -0.256781 2.577188 -0.068804
v -0.265839 2.577188 0.000000
v -0.230223 2.577188 -0.132919
v -0.230223 2.577188 0.132920
v -0.187976 2.577188 -0.187976
v -0.187976 2.577188 0.187977
v -0.132919 2.577188 0.230224
v -0.132919 2.577188 -0.230223
v -0.068804 2.577188 -0.256780
v -0.068804 2.577188 0.256781
v 0.000000 2.577188 -0.265838
v 0.000000 2.577188 0.265839
v 0.068804 2.577188 -0.256780
v 0.068804 2.577188 0.256781
v 0.132919 2.577188 -0.230223
v 0.132919 2.577188 0.230224
v 0.187976 2.577188 -0.187976
v 0.187976 2.577188 0.187977
v 0.230223 2.577188 -0.132919
v 0.230223 2.577188 0.132920
v 0.256781 2.577188 0.068805
v 0.256781 2.577188 -0.068804
v 0.265839 2.577188 0.000000
v -0.187976 2.399451 0.187977
v -0.132919 2.399451 0.230224
v -0.068804 2.399451 0.256781
v 0.000000 2.399451 0.265839
v 0.068804 2.399451 0.256781
v 0.132919 2.399451 0.230224
v 0.187976 2.399451 0.187977
v 0.230223 2.399451 0.132920
v 0.256781 2.399451 0.068805
v 0.265839 2.399451 0.000000
v 0.256781 2.399451 -0.068804
v 0.230223 2.399451 -0.132919
v 0.187976 2.399451 -0.187976
v 0.132919 2.399451 -0.230223
v 0.068804 2.399451 -0.256780
v 0.000000 2.399451 -0.265838
v -0.068804 2.399451 -0.256780
v -0.132919 2.399451 -0.230223
v -0.187976 2.399451 -0.187976
v -0.230223 2.399451 -0.132919
v -0.256781 2.399451 -0.068804
v -0.265839 2.399451 0.000000
v -0.256781 2.399451 0.068805
v -0.230223 2.399451 0.132920
v -0.176203 2.399451 0.000000
v -0.170199 2.399451 0.045605
v -0.152597 2.399451 0.088102
v -0.124595 2.399451 0.124595
v -0.088102 2.399451 0.152597
v -0.045605 2.399451 0.170200
v 0.000000 2.399451 0.176204
v 0.045605 2.399451 0.170200
v 0.088102 2.399451 0.152597
v 0.124595 2.399451 0.124595
v 0.152597 2.399451 0.088102
v 0.170199 2.399451 0.045605
v 0.176203 2.399451 0.000000
v -0.170199 2.399451 -0.045604
v -0.152597 2.399451 -0.088101
v -0.124595 2.399451 -0.124594
v -0.088102 2.399451 -0.152596
v -0.045605 2.399451 -0.170199
v 0.000000 2.399451 -0.176203
v 0.045605 2.399451 -0.170199
v 0.088102 2.399451 -0.152596
v 0.124595 2.399451 -0.124594
v 0.152597 2.399451 -0.088101
v 0.170199 2.399451 -0.045604
v 0.045605 2.132845 -0.170199
v 0.088102 2.043977 -0.152596
v 0.045605 2.043977 -0.170199
v 0.088102 2.132845 -0.152596
v 0.000000 2.132845 -0.176203
v 0.000000 2.043977 -0.176203
v 0.124595 2.043977 -0.124594
v 0.124595 2.132845 -0.124594
v -0.045605 2.132845 -0.170199
v -0.045605 2.043977 -0.170199
v 0.152597 2.132845 -0.088101
v 0.152597 2.043977 -0.088101
v -0.088102 2.132845 -0.152596
v -0.088102 2.043977 -0.152596
v 0.170199 2.132845 -0.045604
v 0.170199 2.043977 -0.045604
v -0.124595 2.132845 -0.124594
v -0.124595 2.043977 -0.124594
v 0.176203 2.132845 0.000000
v 0.176203 2.043977 0.000000
v -0.152597 2.043977 -0.088101
v -0.152597 2.132845 -0.088101
v 0.170199 2.132845 0.045605
v 0.170199 2.043977 0.045605
v -0.170199 2.043977 -0.045604
v -0.170199 2.132845 -0.045604
v 0.152597 2.132845 0.088102
v 0.152597 2.043977 0.088102
v -0.176203 2.132845 0.000000
v -0.176203 2.043977 0.000000
v 0.124595 2.132845 0.124595
v 0.124595 2.043977 0.124595
v -0.170199 2.043977 0.045605
v -0.170199 2.132845 0.045605
v 0.088102 2.043977 0.152597
v 0.088102 2.132845 0.152597
v -0.152597 2.043977 0.088102
v -0.152597 2.132845 0.088102
v 0.045605 2.043977 0.170200
v 0.045605 2.132845 0.170200
v -0.124595 2.043977 0.124595
v -0.124595 2.132845 0.124595
v 0.000000 2.043977 0.176204
v 0.000000 2.132845 0.176204
v -0.088102 2.132845 0.152597
v -0.088102 2.043977 0.152597
v -0.045605 2.043977 0.170200
v -0.045605 2.132845 0.170200
v 0.092004 1.955109 -0.343361
v 0.177737 1.955109 -0.307849
v 0.000000 1.955109 -0.355474
v -0.092004 1.955109 -0.343361
v -0.177737 1.955109 -0.307849
v -0.251358 1.955109 -0.251358
v -0.307850 1.955109 -0.177737
v -0.343362 1.955109 -0.092003
v -0.355474 1.955109 0.000000
v -0.343362 1.955109 0.092004
v -0.307850 1.955109 0.177737
v -0.251358 1.955109 0.251359
v -0.177737 1.955109 0.307850
v -0.092004 1.955109 0.343362
v 0.000000 1.955109 0.355475
v 0.092004 1.955109 0.343362
v 0.177737 1.955109 0.307850
v 0.251358 1.955109 0.251359
v 0.307850 1.955109 0.177737
v 0.343362 1.955109 0.092004
v 0.355474 1.955109 0.000000
v 0.343362 1.955109 -0.092003
v 0.307850 1.955109 -0.177737
v 0.251358 1.955109 -0.251358
v -0.343362 -0.000000 0.092004
v -0.343362 0.000000 -0.092004
v -0.355474 0.000000 0.000000
v -0.307850 -0.000000 0.177737
v -0.307850 0.000000 -0.177737
v -0.251358 -0.000000 0.251358
v -0.177737 -0.000000 0.307850
v -0.092004 -0.000000 0.343362
v 0.000000 -0.000000 0.355474
v 0.092004 -0.000000 0.343362
v 0.177737 -0.000000 0.307850
v 0.251358 -0.000000 0.251358
v 0.307850 -0.000000 0.177737
v -0.251358 0.000000 -0.251358
v -0.177737 0.000000 -0.307850
v -0.092004 0.000000 -0.343362
v 0.000000 0.000000 -0.355474
v 0.092004 0.000000 -0.343362
v 0.177737 0.000000 -0.307850
v 0.251358 0.000000 -0.251358
v 0.307850 0.000000 -0.177737
v 0.343362 0.000000 -0.092004
v 0.343362 -0.000000 0.092004
v 0.355474 0.000000 0.000000
vn 0.000000 -1.000000 -0.000000
vn 0.130526 0.000000 -0.991445
vn -0.130525 0.000000 -0.991445
vn -0.130527 0.000000 -0.991445
vn -0.382684 0.000000 -0.923879
vn -0.608762 0.000000 -0.793353
vn -0.608761 0.000000 -0.793353
vn -0.793353 0.000000 -0.608762
vn -0.923880 0.000000 -0.382684
vn -0.923879 0.000000 -0.382684
vn -0.991445 0.000000 -0.130526
vn -0.991445 0.000000 0.130526
vn -0.923879 -0.000000 0.382684
vn -0.923880 0.000000 0.382683
vn -0.793353 0.000000 0.608762
vn -0.608762 0.000000 0.793353
vn -0.608761 0.000000 0.793353
vn -0.382684 0.000000 0.923879
vn -0.130526 0.000000 0.991445
vn -0.130525 0.000000 0.991445
vn 0.130526 0.000000 0.991445
vn 0.130525 0.000000 0.991445
vn 0.382684 0.000000 0.923879
vn 0.608762 0.000000 0.793353
vn 0.793353 0.000000 0.608762
vn 0.923879 0.000000 0.382684
vn 0.923880 0.000000 0.382683
vn 0.991445 0.000000 0.130526
vn 0.991445 0.000000 -0.130526
vn 0.923880 0.000000 -0.382684
vn 0.923879 0.000000 -0.382684
vn 0.793353 0.000000 -0.608762
vn 0.608762 0.000000 -0.793353
vn 0.608761 0.000000 -0.793353
vn 0.382684 0.000000 -0.923879
vn 0.000000 1.000000 0.000000
vn -0.382683 -0.000000 0.923879
vn 0.382683 -0.000000 0.923879
vn 0.793353 -0.000000 0.608761
vn 0.923880 -0.000000 0.382684
vn 0.991445 -0.000000 0.130525
vn 0.991445 -0.000000 -0.130525
vn 0.923880 0.000000 -0.382683
vn 0.793353 -0.000000 -0.608761
vn 0.382683 0.000000 -0.923880
vn 0.130527 0.000000 -0.991445
vn -0.130526 0.000000 -0.991445
vn -0.382683 0.000000 -0.923880
vn -0.793353 0.000000 -0.608761
vn -0.923879 0.000000 -0.382683
vn -0.991445 0.000000 -0.130525
vn -0.991445 0.000000 0.130525
vn -0.923879 -0.000000 0.382685
vn 0.000000 -1.000000 -0.000004
vn 0.000000 -1.000000 -0.000001
vn 0.000000 -1.000000 0.000005
vn 0.000000 -1.000000 0.000001
vn 0.000000 -1.000000 0.000004
vn 0.000000 -1.000000 -0.000005
vn 0.000000 -1.000000 -0.000002
vn 0.382685 0.000000 -0.923879
vn 0.130528 0.000000 -0.991445
vn 0.130525 0.000000 -0.991445
vn 0.608763 0.000000 -0.793352
vn 0.608758 0.000000 -0.793356
vn 0.608761 0.000000 -0.793354
vn 0.793354 -0.000000 -0.608760
vn -0.382686 0.000000 -0.923879
vn -0.130528 0.000000 -0.991445
vn 0.793354 0.000000 -0.608761
vn 0.923880 0.000000 -0.382682
vn 0.923879 0.000000 -0.382685
vn -0.608759 0.000000 -0.793355
vn 0.991445 0.000000 -0.130527
vn -0.793352 0.000000 -0.608763
vn -0.793354 0.000000 -0.608760
vn -0.608761 0.000000 -0.793354
vn 0.991445 0.000000 0.130527
vn -0.923879 0.000000 -0.382685
vn -0.923880 0.000000 -0.382682
vn -0.793354 0.000000 -0.608761
vn 0.923880 -0.000000 0.382682
vn 0.923879 -0.000000 0.382685
vn -0.991445 0.000000 -0.130527
vn -0.923880 0.000000 -0.382683
vn 0.793354 -0.000000 0.608760
vn -0.991445 -0.000000 0.130527
vn 0.793354 -0.000000 0.608761
vn 0.608758 0.000000 0.793356
vn -0.923880 -0.000000 0.382682
vn 0.608761 -0.000000 0.793354
vn 0.608761 -0.000000 0.793353
vn 0.382685 -0.000000 0.923879
vn 0.382683 -0.000000 0.923880
vn -0.793352 -0.000000 0.608763
vn -0.793354 -0.000000 0.608760
vn 0.130528 -0.000000 0.991445
vn -0.608758 -0.000000 0.793356
vn -0.793353 -0.000000 0.608761
vn -0.793354 -0.000000 0.608761
vn -0.130527 -0.000000 0.991445
vn -0.382686 -0.000000 0.923879
vn -0.382683 -0.000000 0.923880
vn -0.608761 -0.000000 0.793354
vn -0.130528 -0.000000 0.991445
vn 0.171141 0.894428 -0.413170
vn 0.171141 0.894427 -0.413172
vn 0.058373 0.894428 -0.443386
vn -0.058373 0.894427 -0.443387
vn -0.058373 0.894428 -0.443386
vn -0.171141 0.894427 -0.413172
vn -0.272246 0.894427 -0.354800
vn -0.272245 0.894428 -0.354797
vn -0.354797 0.894427 -0.272247
vn -0.354798 0.894429 -0.272241
vn -0.413170 0.894428 -0.171140
vn -0.443386 0.894428 -0.058373
vn -0.443386 0.894428 -0.058372
vn -0.443387 0.894428 0.058372
vn -0.443386 0.894428 0.058375
vn -0.413170 0.894428 0.171140
vn -0.413171 0.894428 0.171140
vn -0.354797 0.894428 0.272247
vn -0.354798 0.894429 0.272240
vn -0.272246 0.894427 0.354799
vn -0.272246 0.894428 0.354797
vn -0.171140 0.894427 0.413172
vn -0.171141 0.894428 0.413170
vn -0.058373 0.894428 0.443386
vn -0.058374 0.894428 0.443386
vn 0.058374 0.894427 0.443387
vn 0.058373 0.894429 0.443385
vn 0.171141 0.894427 0.413172
vn 0.171140 0.894427 0.413172
vn 0.272246 0.894428 0.354797
vn 0.272246 0.894427 0.354799
vn 0.354798 0.894429 0.272241
vn 0.354797 0.894428 0.272247
vn 0.413171 0.894428 0.171140
vn 0.413170 0.894428 0.171140
vn 0.443386 0.894428 0.058372
vn 0.443386 0.894428 0.058373
vn 0.443386 0.894428 -0.058375
vn 0.443386 0.894428 -0.058372
vn 0.413170 0.894428 -0.171140
vn 0.354798 0.894429 -0.272240
vn 0.354797 0.894427 -0.272247
vn 0.272245 0.894428 -0.354797
vn 0.272246 0.894427 -0.354800
usemtl None
s off
f 1//1 3//1 2//1
f 3//1 4//1 2//1
f 4//1 5//1 2//1
f 4//1 6//1 5//1
f 4//1 7//1 6//1
f 8//1 10//1 9//1
f 11//1 13//1 12//1
f 13//1 14//1 12//1
f 13//1 15//1 14//1
f 15//1 16//1 14//1
f 15//1 17//1 16//1
f 18//1 16//1 17//1
f 12//1 19//1 11//1
f 11//1 19//1 8//1
f 19//1 10//1 8//1
f 8//1 9//1 20//1
f 20//1 9//1 21//1
f 9//1 22//1 21//1
f 22//1 6//1 21//1
f 21//1 6//1 7//1
f 23//1 1//1 2//1
f 24//1 1//1 23//1
f 25//2 22//2 9//2
f 26//2 25//2 9//2
f 26//3 9//3 10//3
f 27//4 26//4 10//4
f 27//5 10//5 19//5
f 28//5 27//5 19//5
f 12//6 29//6 28//6
f 19//7 12//7 28//7
f 30//8 29//8 12//8
f 14//8 30//8 12//8
f 31//9 30//9 14//9
f 14//10 16//10 31//10
f 16//11 18//11 32//11
f 31//11 16//11 32//11
f 18//12 17//12 33//12
f 32//12 18//12 33//12
f 34//13 33//13 17//13
f 15//14 34//14 17//14
f 35//15 34//15 15//15
f 13//15 35//15 15//15
f 13//16 11//16 35//16
f 36//17 35//17 11//17
f 11//18 8//18 36//18
f 37//18 36//18 8//18
f 8//19 20//19 37//19
f 38//20 37//20 20//20
f 21//21 39//21 38//21
f 20//22 21//22 38//22
f 39//23 21//23 7//23
f 40//23 39//23 7//23
f 40//24 7//24 4//24
f 41//24 40//24 4//24
f 4//25 3//25 42//25
f 42//25 41//25 4//25
f 42//26 3//26 43//26
f 1//27 43//27 3//27
f 44//28 43//28 1//28
f 44//28 1//28 24//28
f 45//29 44//29 24//29
f 23//29 45//29 24//29
f 46//30 45//30 23//30
f 2//31 46//31 23//31
f 2//32 5//32 47//32
f 47//32 46//32 2//32
f 5//33 6//33 47//33
f 48//34 47//34 6//34
f 6//35 22//35 48//35
f 25//35 48//35 22//35
f 49//36 50//36 51//36
f 50//36 49//36 52//36
f 52//36 49//36 53//36
f 52//36 53//36 54//36
f 54//36 53//36 55//36
f 54//36 55//36 56//36
f 54//36 56//36 57//36
f 57//36 56//36 58//36
f 58//36 56//36 59//36
f 58//36 59//36 60//36
f 60//36 59//36 61//36
f 60//36 61//36 62//36
f 62//36 61//36 63//36
f 62//36 63//36 64//36
f 64//36 63//36 65//36
f 64//36 65//36 66//36
f 66//36 65//36 67//36
f 66//36 67//36 68//36
f 68//36 67//36 69//36
f 68//36 69//36 70//36
f 68//36 70//36 71//36
f 71//36 70//36 72//36
f 56//16 73//16 74//16
f 73//16 56//16 55//16
f 59//18 74//18 75//18
f 74//37 59//37 56//37
f 61//19 75//19 76//19
f 75//19 61//19 59//19
f 63//21 76//21 77//21
f 76//21 63//21 61//21
f 65//38 77//38 78//38
f 77//23 65//23 63//23
f 67//24 78//24 79//24
f 78//24 67//24 65//24
f 80//25 67//25 79//25
f 67//39 80//39 69//39
f 81//40 69//40 80//40
f 69//26 81//26 70//26
f 82//28 70//28 81//28
f 70//41 82//41 72//41
f 83//29 72//29 82//29
f 72//42 83//42 71//42
f 84//43 71//43 83//43
f 71//31 84//31 68//31
f 85//32 68//32 84//32
f 68//44 85//44 66//44
f 64//33 85//33 86//33
f 85//33 64//33 66//33
f 62//45 86//45 87//45
f 86//35 62//35 64//35
f 60//2 87//2 88//2
f 87//46 60//46 62//46
f 58//4 88//4 89//4
f 88//47 58//47 60//47
f 57//5 89//5 90//5
f 89//48 57//48 58//48
f 54//6 90//6 91//6
f 90//6 54//6 57//6
f 54//49 92//49 52//49
f 92//8 54//8 91//8
f 52//10 93//10 50//10
f 93//50 52//50 92//50
f 50//51 94//51 51//51
f 94//11 50//11 93//11
f 51//52 95//52 49//52
f 95//12 51//12 94//12
f 49//53 96//53 53//53
f 96//14 49//14 95//14
f 53//15 73//15 55//15
f 73//15 53//15 96//15
f 95//1 94//1 93//1
f 93//1 92//1 95//1
f 92//1 96//1 95//1
f 92//1 91//1 96//1
f 91//1 73//1 96//1
f 91//1 97//1 73//1
f 97//1 98//1 73//1
f 98//1 74//1 73//1
f 98//54 99//54 74//54
f 99//55 100//55 74//55
f 100//1 75//1 74//1
f 100//56 101//56 75//56
f 101//1 102//1 75//1
f 102//56 76//56 75//56
f 102//1 103//1 76//1
f 103//1 104//1 76//1
f 104//56 77//56 76//56
f 104//1 105//1 77//1
f 105//1 78//1 77//1
f 105//57 106//57 78//57
f 106//1 107//1 78//1
f 107//1 79//1 78//1
f 107//1 108//1 79//1
f 108//1 109//1 79//1
f 109//1 85//1 79//1
f 85//1 84//1 79//1
f 84//1 80//1 79//1
f 84//1 81//1 80//1
f 84//1 83//1 81//1
f 83//1 82//1 81//1
f 91//1 90//1 110//1
f 110//1 97//1 91//1
f 90//58 111//58 110//58
f 90//1 112//1 111//1
f 90//1 89//1 112//1
f 89//59 113//59 112//59
f 89//1 114//1 113//1
f 89//60 88//60 114//60
f 88//1 115//1 114//1
f 88//1 87//1 115//1
f 87//54 116//54 115//54
f 87//1 117//1 116//1
f 87//1 86//1 117//1
f 86//1 118//1 117//1
f 86//1 119//1 118//1
f 86//1 85//1 119//1
f 85//1 120//1 119//1
f 85//57 109//57 120//57
f 98//1 97//1 110//1
f 110//1 99//1 98//1
f 110//1 111//1 99//1
f 111//1 100//1 99//1
f 111//1 112//1 100//1
f 112//1 101//1 100//1
f 112//1 113//1 101//1
f 113//1 114//1 101//1
f 114//1 102//1 101//1
f 114//1 115//1 102//1
f 115//1 103//1 102//1
f 115//1 116//1 103//1
f 116//1 104//1 103//1
f 116//1 105//1 104//1
f 116//1 117//1 105//1
f 117//1 118//1 105//1
f 118//1 106//1 105//1
f 118//1 107//1 106//1
f 118//1 119//1 107//1
f 119//1 108//1 107//1
f 119//1 120//1 108//1
f 120//1 109//1 108//1
f 121//61 122//61 123//61
f 122//45 121//45 124//45
f 125//62 123//62 126//62
f 123//63 125//63 121//63
f 116//45 124//45 121//45
f 124//45 116//45 117//45
f 124//64 127//64 122//64
f 127//65 124//65 128//65
f 129//4 126//4 130//4
f 126//4 129//4 125//4
f 115//62 121//62 125//62
f 121//2 115//2 116//2
f 117//33 128//33 124//33
f 128//66 117//66 118//66
f 127//67 131//67 132//67
f 131//32 127//32 128//32
f 133//68 130//68 134//68
f 130//48 133//48 129//48
f 114//47 125//47 129//47
f 125//69 114//69 115//69
f 128//70 119//70 131//70
f 119//70 128//70 118//70
f 132//71 135//71 136//71
f 135//72 132//72 131//72
f 137//6 134//6 138//6
f 134//73 137//73 133//73
f 113//48 129//48 133//48
f 129//48 113//48 114//48
f 131//43 120//43 135//43
f 120//31 131//31 119//31
f 136//29 139//29 140//29
f 139//74 136//74 135//74
f 137//75 141//75 142//75
f 141//76 137//76 138//76
f 112//77 133//77 137//77
f 133//6 112//6 113//6
f 135//74 109//74 139//74
f 109//74 135//74 120//74
f 140//28 143//28 144//28
f 143//78 140//78 139//78
f 142//79 145//79 146//79
f 145//80 142//80 141//80
f 112//49 142//49 111//49
f 142//81 112//81 137//81
f 139//78 108//78 143//78
f 108//78 139//78 109//78
f 144//82 147//82 148//82
f 147//83 144//83 143//83
f 149//11 145//11 150//11
f 145//84 149//84 146//84
f 111//10 146//10 110//10
f 146//85 111//85 142//85
f 143//27 107//27 147//27
f 107//26 143//26 108//26
f 148//86 151//86 152//86
f 151//25 148//25 147//25
f 149//87 153//87 154//87
f 153//87 149//87 150//87
f 97//84 146//84 149//84
f 146//84 97//84 110//84
f 147//88 106//88 151//88
f 106//39 147//39 107//39
f 151//24 155//24 152//24
f 155//89 151//89 156//89
f 154//53 157//53 158//53
f 157//90 154//90 153//90
f 97//87 154//87 98//87
f 154//87 97//87 149//87
f 106//91 156//91 151//91
f 156//92 106//92 105//92
f 156//93 159//93 155//93
f 159//94 156//94 160//94
f 158//95 161//95 162//95
f 161//96 158//96 157//96
f 98//13 158//13 99//13
f 158//14 98//14 154//14
f 105//94 160//94 156//94
f 160//94 105//94 104//94
f 160//97 163//97 159//97
f 163//22 160//22 164//22
f 165//16 161//16 166//16
f 161//98 165//98 162//98
f 99//99 162//99 100//99
f 162//100 99//100 158//100
f 104//97 164//97 160//97
f 164//21 104//21 103//21
f 164//101 167//101 163//101
f 167//19 164//19 168//19
f 168//102 166//102 167//102
f 166//103 168//103 165//103
f 101//104 162//104 165//104
f 162//17 101//17 100//17
f 103//19 168//19 164//19
f 168//105 103//105 102//105
f 102//103 165//103 168//103
f 165//103 102//103 101//103
f 154//36 146//36 149//36
f 146//36 154//36 158//36
f 146//36 158//36 142//36
f 142//36 158//36 162//36
f 142//36 162//36 137//36
f 137//36 162//36 165//36
f 137//36 165//36 133//36
f 133//36 165//36 129//36
f 129//36 165//36 168//36
f 129//36 168//36 125//36
f 125//36 168//36 164//36
f 125//36 164//36 121//36
f 121//36 164//36 160//36
f 121//36 160//36 156//36
f 121//36 156//36 124//36
f 124//36 156//36 128//36
f 128//36 156//36 151//36
f 128//36 151//36 147//36
f 128//36 147//36 131//36
f 131//36 147//36 143//36
f 131//36 143//36 135//36
f 135//36 143//36 139//36
f 153//36 145//36 150//36
f 145//36 153//36 157//36
f 145//36 157//36 141//36
f 141//36 157//36 161//36
f 141//36 161//36 138//36
f 138//36 161//36 166//36
f 138//36 166//36 134//36
f 134//36 166//36 130//36
f 130//36 166//36 167//36
f 130//36 167//36 126//36
f 126//36 167//36 163//36
f 126//36 163//36 123//36
f 123//36 163//36 159//36
f 123//36 159//36 155//36
f 123//36 155//36 122//36
f 122//36 155//36 127//36
f 127//36 155//36 152//36
f 127//36 152//36 148//36
f 127//36 148//36 132//36
f 132//36 148//36 144//36
f 132//36 144//36 136//36
f 136//36 144//36 140//36
f 122//106 169//106 123//106
f 169//107 122//107 170//107
f 123//108 171//108 126//108
f 171//108 123//108 169//108
f 130//109 171//109 172//109
f 171//110 130//110 126//110
f 134//111 172//111 173//111
f 172//111 134//111 130//111
f 138//112 173//112 174//112
f 173//113 138//113 134//113
f 141//114 174//114 175//114
f 174//115 141//115 138//115
f 145//116 175//116 176//116
f 175//116 145//116 141//116
f 150//117 176//117 177//117
f 176//118 150//118 145//118
f 178//119 150//119 177//119
f 150//120 178//120 153//120
f 179//121 153//121 178//121
f 153//122 179//122 157//122
f 180//123 157//123 179//123
f 157//124 180//124 161//124
f 181//125 161//125 180//125
f 161//126 181//126 166//126
f 182//127 166//127 181//127
f 166//128 182//128 167//128
f 183//129 167//129 182//129
f 167//130 183//130 163//130
f 184//131 163//131 183//131
f 163//132 184//132 159//132
f 184//133 155//133 159//133
f 155//134 184//134 185//134
f 185//135 152//135 155//135
f 152//136 185//136 186//136
f 186//137 148//137 152//137
f 148//138 186//138 187//138
f 187//139 144//139 148//139
f 144//140 187//140 188//140
f 188//141 140//141 144//141
f 140//142 188//142 189//142
f 140//143 190//143 136//143
f 190//144 140//144 189//144
f 136//145 191//145 132//145
f 191//145 136//145 190//145
f 132//146 192//146 127//146
f 192//147 132//147 191//147
f 127//148 170//148 122//148
f 170//149 127//149 192//149
f 193//1 195//1 194//1
f 194//1 196//1 193//1
f 194//1 197//1 196//1
f 197//1 198//1 196//1
f 197//1 44//1 198//1
f 44//1 45//1 198//1
f 45//1 46//1 198//1
f 46//1 199//1 198//1
f 46//1 47//1 199//1
f 47//1 48//1 199//1
f 48//1 200//1 199//1
f 48//1 25//1 200//1
f 25//1 201//1 200//1
f 25//1 26//1 201//1
f 26//1 202//1 201//1
f 26//1 27//1 202//1
f 27//1 28//1 202//1
f 28//1 203//1 202//1
f 28//1 29//1 203//1
f 29//1 204//1 203//1
f 29//1 30//1 204//1
f 30//1 31//1 204//1
f 31//1 205//1 204//1
f 31//1 32//1 205//1
f 44//1 197//1 206//1
f 206//1 43//1 44//1
f 206//1 42//1 43//1
f 206//1 207//1 42//1
f 207//1 41//1 42//1
f 207//1 40//1 41//1
f 207//1 208//1 40//1
f 208//1 39//1 40//1
f 208//1 209//1 39//1
f 209//1 38//1 39//1
f 209//1 37//1 38//1
f 209//1 210//1 37//1
f 210//1 36//1 37//1
f 210//1 211//1 36//1
f 211//1 35//1 36//1
f 211//1 212//1 35//1
f 212//1 34//1 35//1
f 212//1 33//1 34//1
f 212//1 213//1 33//1
f 213//1 32//1 33//1
f 214//1 216//1 215//1
f 214//1 215//1 213//1
f 215//1 205//1 213//1
f 205//1 32//1 213//1
f 200//19 183//19 182//19
f 201//105 183//105 200//105
f 183//97 201//97 184//97
f 202//21 184//21 201//21
f 185//94 202//94 203//94
f 184//94 202//94 185//94
f 186//24 203//24 204//24
f 185//24 203//24 186//24
f 205//25 186//25 204//25
f 186//25 205//25 187//25
f 215//27 187//27 205//27
f 187//27 215//27 188//27
f 188//78 216//78 189//78
f 215//78 216//78 188//78
f 190//74 189//74 214//74
f 216//74 214//74 189//74
f 213//43 190//43 214//43
f 191//43 190//43 213//43
f 191//32 212//32 192//32
f 213//32 212//32 191//32
f 192//33 212//33 170//33
f 211//33 170//33 212//33
f 170//45 211//45 169//45
f 210//45 169//45 211//45
f 171//2 210//2 209//2
f 169//62 210//62 171//62
f 172//69 209//69 208//69
f 171//47 209//47 172//47
f 173//48 208//48 207//48
f 172//48 208//48 173//48
f 173//6 207//6 174//6
f 206//6 174//6 207//6
f 174//8 197//8 175//8
f 206//8 197//8 174//8
f 194//85 175//85 197//85
f 176//85 175//85 194//85
f 195//84 176//84 194//84
f 177//84 176//84 195//84
f 193//87 177//87 195//87
f 178//87 177//87 193//87
f 178//14 196//14 179//14
f 193//14 196//14 178//14
f 179//15 198//15 180//15
f 196//15 198//15 179//15
f 181//16 198//16 199//16
f 180//16 198//16 181//16
f 182//103 199//103 200//103
f 181//103 199//103 182//103
f 176//1 179//1 178//1
f 176//1 175//1 179//1
f 175//1 180//1 179//1
f 174//1 173//1 181//1
f 173//1 172//1 182//1
f 170//1 186//1 185//1
f 170//1 192//1 186//1
f 192//1 187//1 186//1
f 192//1 191//1 187//1
f 191//1 188//1 187//1
f 189//1 188//1 190//1
f 190//1 188//1 191//1
f 170//1 185//1 169//1
f 185//1 184//1 169//1
f 169//1 184//1 171//1
f 184//1 183//1 171//1
f 171//1 183//1 172//1
f 183//1 182//1 172//1
f 182//1 181//1 173//1
f 181//1 180//1 174//1
f 174//1 180//1 175//1
f 177//1 176//1 178//1
